<svg xmlns="http://www.w3.org/2000/svg" version="1.1" xmlns:xlink="http://www.w3.org/1999/xlink" xmlns:svgjs="http://svgjs.dev/svgjs" width="2000" height="1898" viewBox="0 0 2000 1898"><g transform="matrix(1,0,0,1,-1.2121212121212466,70.05243660004305)"><svg viewBox="0 0 396 376" data-background-color="#ffffff" preserveAspectRatio="xMidYMid meet" height="1898" width="2000" xmlns="http://www.w3.org/2000/svg" xmlns:xlink="http://www.w3.org/1999/xlink"><g id="tight-bounds" transform="matrix(1,0,0,1,0.2400000000000091,64.39999999999998)"><svg viewBox="0 0 395.52 247.2" height="247.2" width="395.52"><g><svg></svg></g><g><svg viewBox="0 0 395.52 247.2" height="247.2" width="395.52"><g transform="matrix(1,0,0,1,129.5252240635641,47.215199999999996)"><svg viewBox="0 0 136.46955187287173 152.7696" height="152.7696" width="136.46955187287173"><g><svg viewBox="0 0 136.46955187287173 152.7696" height="152.7696" width="136.46955187287173"><g><svg viewBox="0 0 136.46955187287173 152.7696" height="152.7696" width="136.46955187287173"><g><svg viewBox="0 0 136.46955187287173 152.7696" height="152.7696" width="136.46955187287173"><g id="textblocktransform"><svg viewBox="0 0 136.46955187287173 152.7696" height="152.7696" width="136.46955187287173" id="textblock"><g><svg viewBox="0 0 136.46955187287173 152.7696" height="152.7696" width="136.46955187287173"><g transform="matrix(1,0,0,1,0,0)"><svg width="136.46955187287173" viewBox="-1 -34.79999923706055 39.349998474121094 44.04999923706055" height="152.7696" data-palette-color="#1e1e1e"><path d="M26.85 0L16.9 0 15.9-6.9 9.85-6.9 8.85 0-1 0 7.1-34.8 18.8-34.8 26.85 0ZM12.85-27.85L10.85-13.8 14.9-13.8 12.85-27.85ZM38.35-34.8L38.35-5.5Q38.35-1.1 36.75 1.83 35.15 4.75 32.77 6.38 30.4 8 27.25 9.25L27.25 9.25 24.6 2.3Q26.35 1.45 27.17 0.43 28-0.6 28.22-1.98 28.45-3.35 28.45-5.85L28.45-5.85 28.45-34.8 38.35-34.8Z" opacity="1" transform="matrix(1,0,0,1,0,0)" fill="#1e1e1e" class="wordmark-text-0" data-fill-palette-color="primary" id="text-0"></path></svg></g></svg></g></svg></g></svg></g><g></g></svg></g></svg></g></svg></g><g><path d="M108.379 11.15A68.235 68.235 0 0 1 287.141 11.15L273.364 11.15A54.458 54.458 0 0 0 122.156 11.15L108.379 11.15M108.379 236.05A68.235 68.235 0 0 0 287.141 236.05L273.364 236.05A54.458 54.458 0 0 1 122.156 236.05L108.379 236.05" fill="#9029bd" stroke="transparent" data-fill-palette-color="tertiary"></path></g></svg></g><defs></defs></svg><rect width="395.52" height="247.2" fill="none" stroke="none" visibility="hidden"></rect></g></svg></g></svg>